<svg width="1919" height="80" viewBox="0 0 1919 80" fill="none" xmlns="http://www.w3.org/2000/svg">
<rect x="0.5" y="0.5" width="1920" height="79" fill="white" stroke="#F0F0F0"/>
<path d="M1609.18 46V34.8H1612.8C1613.67 34.8 1614.39 34.944 1614.94 35.232C1615.5 35.52 1615.91 35.9147 1616.18 36.416C1616.44 36.9173 1616.58 37.472 1616.58 38.08C1616.58 38.784 1616.38 39.4187 1616 39.984C1615.63 40.5493 1615.04 40.9493 1614.24 41.184L1616.69 46H1615.1L1612.83 41.376H1612.74H1610.53V46H1609.18ZM1610.53 40.32H1612.7C1613.57 40.32 1614.2 40.112 1614.59 39.696C1614.99 39.28 1615.18 38.7467 1615.18 38.096C1615.18 37.4347 1614.99 36.912 1614.59 36.528C1614.21 36.1333 1613.57 35.936 1612.69 35.936H1610.53V40.32ZM1621.67 46.192C1620.91 46.192 1620.24 46.0213 1619.66 45.68C1619.07 45.328 1618.61 44.8427 1618.26 44.224C1617.93 43.6053 1617.77 42.8747 1617.77 42.032C1617.77 41.2 1617.93 40.4747 1618.26 39.856C1618.59 39.2267 1619.05 38.7413 1619.64 38.4C1620.24 38.048 1620.93 37.872 1621.7 37.872C1622.47 37.872 1623.13 38.048 1623.69 38.4C1624.25 38.7413 1624.69 39.1947 1624.98 39.76C1625.28 40.3253 1625.43 40.9333 1625.43 41.584C1625.43 41.7013 1625.43 41.8187 1625.42 41.936C1625.42 42.0533 1625.42 42.1867 1625.42 42.336H1619.1C1619.13 42.944 1619.27 43.4507 1619.51 43.856C1619.77 44.2507 1620.08 44.5493 1620.46 44.752C1620.84 44.9547 1621.25 45.056 1621.67 45.056C1622.23 45.056 1622.69 44.928 1623.06 44.672C1623.44 44.416 1623.71 44.0693 1623.88 43.632H1625.21C1624.99 44.368 1624.58 44.9813 1623.98 45.472C1623.38 45.952 1622.61 46.192 1621.67 46.192ZM1621.67 39.008C1621.03 39.008 1620.46 39.2053 1619.96 39.6C1619.47 39.984 1619.19 40.5493 1619.11 41.296H1624.1C1624.07 40.5813 1623.83 40.0213 1623.37 39.616C1622.91 39.2107 1622.34 39.008 1621.67 39.008ZM1630.08 46C1629.36 46 1628.79 45.824 1628.37 45.472C1627.96 45.12 1627.75 44.4853 1627.75 43.568V39.2H1626.37V38.064H1627.75L1627.92 36.16H1629.09V38.064H1631.43V39.2H1629.09V43.568C1629.09 44.0693 1629.19 44.4107 1629.4 44.592C1629.6 44.7627 1629.96 44.848 1630.47 44.848H1631.3V46H1630.08ZM1640.08 38.064V46H1638.86L1638.78 44.576C1638.53 45.0773 1638.16 45.472 1637.68 45.76C1637.2 46.048 1636.66 46.192 1636.05 46.192C1635.11 46.192 1634.36 45.9093 1633.79 45.344C1633.24 44.768 1632.96 43.888 1632.96 42.704V38.064H1634.3V42.56C1634.3 44.2133 1634.99 45.04 1636.35 45.04C1637.03 45.04 1637.6 44.7947 1638.05 44.304C1638.51 43.8027 1638.74 43.0933 1638.74 42.176V38.064H1640.08ZM1642.29 46V38.064H1643.51L1643.62 39.584C1643.86 39.0613 1644.24 38.6453 1644.74 38.336C1645.24 38.0267 1645.86 37.872 1646.6 37.872V39.28H1646.23C1645.76 39.28 1645.33 39.3653 1644.93 39.536C1644.54 39.696 1644.22 39.9733 1643.99 40.368C1643.75 40.7627 1643.64 41.3067 1643.64 42V46H1642.29ZM1648.1 46V38.064H1649.32L1649.4 39.488C1649.66 38.9867 1650.02 38.592 1650.5 38.304C1650.98 38.016 1651.53 37.872 1652.14 37.872C1653.07 37.872 1653.82 38.16 1654.38 38.736C1654.94 39.3013 1655.22 40.176 1655.22 41.36V46H1653.88V41.504C1653.88 39.8507 1653.2 39.024 1651.83 39.024C1651.15 39.024 1650.58 39.2747 1650.12 39.776C1649.67 40.2667 1649.45 40.9707 1649.45 41.888V46H1648.1ZM1661.49 49.52V38.064H1662.71L1662.84 39.376C1663.09 38.992 1663.46 38.6453 1663.93 38.336C1664.41 38.0267 1665.01 37.872 1665.75 37.872C1666.54 37.872 1667.23 38.0533 1667.81 38.416C1668.4 38.7787 1668.85 39.2747 1669.17 39.904C1669.51 40.5333 1669.67 41.248 1669.67 42.048C1669.67 42.848 1669.51 43.5627 1669.17 44.192C1668.85 44.8107 1668.4 45.3013 1667.8 45.664C1667.21 46.016 1666.52 46.192 1665.73 46.192C1665.08 46.192 1664.5 46.0587 1663.99 45.792C1663.49 45.5253 1663.11 45.152 1662.84 44.672V49.52H1661.49ZM1665.59 45.024C1666.12 45.024 1666.59 44.9013 1667 44.656C1667.4 44.4 1667.72 44.048 1667.96 43.6C1668.19 43.152 1668.31 42.6293 1668.31 42.032C1668.31 41.4347 1668.19 40.912 1667.96 40.464C1667.72 40.016 1667.4 39.6693 1667 39.424C1666.59 39.168 1666.12 39.04 1665.59 39.04C1665.06 39.04 1664.59 39.168 1664.18 39.424C1663.78 39.6693 1663.46 40.016 1663.22 40.464C1662.99 40.912 1662.87 41.4347 1662.87 42.032C1662.87 42.6293 1662.99 43.152 1663.22 43.6C1663.46 44.048 1663.78 44.4 1664.18 44.656C1664.59 44.9013 1665.06 45.024 1665.59 45.024ZM1675.16 46.192C1674.41 46.192 1673.74 46.0213 1673.14 45.68C1672.54 45.3387 1672.07 44.8587 1671.72 44.24C1671.38 43.6107 1671.21 42.8747 1671.21 42.032C1671.21 41.1893 1671.38 40.4587 1671.73 39.84C1672.09 39.2107 1672.56 38.7253 1673.16 38.384C1673.77 38.0427 1674.44 37.872 1675.19 37.872C1675.94 37.872 1676.61 38.0427 1677.21 38.384C1677.8 38.7253 1678.27 39.2107 1678.61 39.84C1678.97 40.4587 1679.14 41.1893 1679.14 42.032C1679.14 42.8747 1678.97 43.6107 1678.61 44.24C1678.26 44.8587 1677.78 45.3387 1677.17 45.68C1676.58 46.0213 1675.9 46.192 1675.16 46.192ZM1675.16 45.04C1675.62 45.04 1676.04 44.928 1676.44 44.704C1676.83 44.48 1677.15 44.144 1677.4 43.696C1677.64 43.248 1677.77 42.6933 1677.77 42.032C1677.77 41.3707 1677.64 40.816 1677.4 40.368C1677.16 39.92 1676.85 39.584 1676.45 39.36C1676.06 39.136 1675.64 39.024 1675.19 39.024C1674.73 39.024 1674.3 39.136 1673.91 39.36C1673.51 39.584 1673.19 39.92 1672.95 40.368C1672.7 40.816 1672.58 41.3707 1672.58 42.032C1672.58 42.6933 1672.7 43.248 1672.95 43.696C1673.19 44.144 1673.51 44.48 1673.89 44.704C1674.29 44.928 1674.71 45.04 1675.16 45.04ZM1681.01 46V34.48H1682.35V46H1681.01ZM1685.37 36.304C1685.11 36.304 1684.88 36.2187 1684.7 36.048C1684.53 35.8667 1684.45 35.6427 1684.45 35.376C1684.45 35.12 1684.53 34.9067 1684.7 34.736C1684.88 34.5653 1685.11 34.48 1685.37 34.48C1685.63 34.48 1685.85 34.5653 1686.03 34.736C1686.21 34.9067 1686.3 35.12 1686.3 35.376C1686.3 35.6427 1686.21 35.8667 1686.03 36.048C1685.85 36.2187 1685.63 36.304 1685.37 36.304ZM1684.7 46V38.064H1686.05V46H1684.7ZM1692.03 46.192C1691.28 46.192 1690.59 46.0213 1689.99 45.68C1689.39 45.328 1688.91 44.8427 1688.56 44.224C1688.22 43.5947 1688.05 42.864 1688.05 42.032C1688.05 41.2 1688.22 40.4747 1688.56 39.856C1688.91 39.2267 1689.39 38.7413 1689.99 38.4C1690.59 38.048 1691.28 37.872 1692.03 37.872C1692.97 37.872 1693.76 38.1173 1694.4 38.608C1695.05 39.0987 1695.46 39.7547 1695.63 40.576H1694.26C1694.15 40.0853 1693.89 39.7067 1693.47 39.44C1693.06 39.1627 1692.57 39.024 1692.02 39.024C1691.57 39.024 1691.15 39.136 1690.75 39.36C1690.36 39.584 1690.04 39.92 1689.79 40.368C1689.55 40.816 1689.43 41.3707 1689.43 42.032C1689.43 42.6933 1689.55 43.248 1689.79 43.696C1690.04 44.144 1690.36 44.4853 1690.75 44.72C1691.15 44.944 1691.57 45.056 1692.02 45.056C1692.57 45.056 1693.06 44.9227 1693.47 44.656C1693.89 44.3787 1694.15 43.9893 1694.26 43.488H1695.63C1695.47 44.288 1695.07 44.9387 1694.42 45.44C1693.77 45.9413 1692.97 46.192 1692.03 46.192ZM1698.37 49.52L1700.34 45.232H1699.88L1696.73 38.064H1698.18L1700.81 44.24L1703.59 38.064H1704.98L1699.78 49.52H1698.37ZM1711.45 36.304C1711.18 36.304 1710.96 36.2187 1710.78 36.048C1710.61 35.8667 1710.52 35.6427 1710.52 35.376C1710.52 35.12 1710.61 34.9067 1710.78 34.736C1710.96 34.5653 1711.18 34.48 1711.45 34.48C1711.71 34.48 1711.93 34.5653 1712.11 34.736C1712.29 34.9067 1712.38 35.12 1712.38 35.376C1712.38 35.6427 1712.29 35.8667 1712.11 36.048C1711.93 36.2187 1711.71 36.304 1711.45 36.304ZM1710.78 46V38.064H1712.12V46H1710.78ZM1714.46 46V38.064H1715.68L1715.76 39.488C1716.02 38.9867 1716.38 38.592 1716.86 38.304C1717.34 38.016 1717.89 37.872 1718.5 37.872C1719.43 37.872 1720.18 38.16 1720.74 38.736C1721.3 39.3013 1721.58 40.176 1721.58 41.36V46H1720.24V41.504C1720.24 39.8507 1719.56 39.024 1718.19 39.024C1717.51 39.024 1716.94 39.2747 1716.48 39.776C1716.03 40.2667 1715.81 40.9707 1715.81 41.888V46H1714.46ZM1731.42 46.192C1730.71 46.192 1730.06 46.064 1729.49 45.808C1728.91 45.5413 1728.45 45.1467 1728.09 44.624C1727.75 44.1013 1727.57 43.4507 1727.55 42.672H1728.91C1728.92 43.312 1729.14 43.8667 1729.58 44.336C1730.02 44.7947 1730.63 45.024 1731.42 45.024C1732.21 45.024 1732.8 44.8053 1733.2 44.368C1733.6 43.9307 1733.81 43.4027 1733.81 42.784C1733.81 42.2613 1733.68 41.8347 1733.42 41.504C1733.18 41.1733 1732.84 40.928 1732.41 40.768C1732 40.608 1731.54 40.528 1731.04 40.528H1730.21V39.392H1731.04C1731.76 39.392 1732.33 39.2267 1732.73 38.896C1733.15 38.5653 1733.36 38.1013 1733.36 37.504C1733.36 37.0027 1733.19 36.592 1732.86 36.272C1732.54 35.9413 1732.06 35.776 1731.42 35.776C1730.8 35.776 1730.31 35.9627 1729.93 36.336C1729.56 36.6987 1729.35 37.1573 1729.31 37.712H1727.95C1727.98 37.104 1728.14 36.5653 1728.43 36.096C1728.73 35.6267 1729.13 35.264 1729.65 35.008C1730.16 34.7413 1730.75 34.608 1731.42 34.608C1732.15 34.608 1732.75 34.736 1733.23 34.992C1733.72 35.248 1734.09 35.5893 1734.33 36.016C1734.59 36.4427 1734.72 36.912 1734.72 37.424C1734.72 37.9893 1734.56 38.5067 1734.25 38.976C1733.94 39.4347 1733.48 39.744 1732.86 39.904C1733.52 40.0427 1734.07 40.3573 1734.51 40.848C1734.95 41.3387 1735.17 41.984 1735.17 42.784C1735.17 43.4027 1735.02 43.9733 1734.73 44.496C1734.46 45.008 1734.04 45.4187 1733.49 45.728C1732.93 46.0373 1732.24 46.192 1731.42 46.192ZM1741.71 46.192C1740.72 46.192 1739.86 45.952 1739.13 45.472C1738.42 44.9813 1737.87 44.304 1737.48 43.44C1737.1 42.5653 1736.91 41.552 1736.91 40.4C1736.91 39.248 1737.1 38.24 1737.48 37.376C1737.87 36.5013 1738.42 35.824 1739.13 35.344C1739.86 34.8533 1740.72 34.608 1741.71 34.608C1742.7 34.608 1743.55 34.8533 1744.27 35.344C1744.98 35.824 1745.53 36.5013 1745.92 37.376C1746.3 38.24 1746.49 39.248 1746.49 40.4C1746.49 41.552 1746.3 42.5653 1745.92 43.44C1745.53 44.304 1744.98 44.9813 1744.27 45.472C1743.55 45.952 1742.7 46.192 1741.71 46.192ZM1741.71 45.008C1742.36 45.008 1742.94 44.8267 1743.45 44.464C1743.97 44.0907 1744.38 43.5627 1744.67 42.88C1744.97 42.1867 1745.12 41.36 1745.12 40.4C1745.12 39.44 1744.97 38.6187 1744.67 37.936C1744.38 37.2533 1743.97 36.7307 1743.45 36.368C1742.94 35.9947 1742.36 35.808 1741.71 35.808C1741.05 35.808 1740.46 35.9947 1739.95 36.368C1739.44 36.7307 1739.03 37.2533 1738.73 37.936C1738.43 38.6187 1738.28 39.44 1738.28 40.4C1738.28 41.36 1738.43 42.1867 1738.73 42.88C1739.03 43.5627 1739.44 44.0907 1739.95 44.464C1740.46 44.8267 1741.05 45.008 1741.71 45.008ZM1756.19 46.192C1755.4 46.192 1754.71 46.0107 1754.11 45.648C1753.52 45.2853 1753.06 44.7893 1752.73 44.16C1752.41 43.5307 1752.25 42.816 1752.25 42.016C1752.25 41.216 1752.42 40.5067 1752.75 39.888C1753.08 39.2587 1753.54 38.768 1754.12 38.416C1754.71 38.0533 1755.4 37.872 1756.2 37.872C1756.86 37.872 1757.43 38.0053 1757.93 38.272C1758.43 38.5387 1758.82 38.912 1759.1 39.392V34.48H1760.44V46H1759.23L1759.1 44.688C1758.84 45.072 1758.48 45.4187 1758 45.728C1757.52 46.0373 1756.91 46.192 1756.19 46.192ZM1756.33 45.024C1756.87 45.024 1757.34 44.9013 1757.74 44.656C1758.16 44.4 1758.48 44.048 1758.7 43.6C1758.94 43.152 1759.05 42.6293 1759.05 42.032C1759.05 41.4347 1758.94 40.912 1758.7 40.464C1758.48 40.016 1758.16 39.6693 1757.74 39.424C1757.34 39.168 1756.87 39.04 1756.33 39.04C1755.81 39.04 1755.34 39.168 1754.92 39.424C1754.52 39.6693 1754.2 40.016 1753.96 40.464C1753.74 40.912 1753.63 41.4347 1753.63 42.032C1753.63 42.6293 1753.74 43.152 1753.96 43.6C1754.2 44.048 1754.52 44.4 1754.92 44.656C1755.34 44.9013 1755.81 45.024 1756.33 45.024ZM1765.28 46.192C1764.61 46.192 1764.06 46.08 1763.63 45.856C1763.19 45.632 1762.86 45.3333 1762.65 44.96C1762.44 44.5867 1762.33 44.1813 1762.33 43.744C1762.33 42.9333 1762.64 42.3093 1763.26 41.872C1763.88 41.4347 1764.72 41.216 1765.79 41.216H1767.93V41.12C1767.93 40.4267 1767.75 39.904 1767.39 39.552C1767.02 39.1893 1766.54 39.008 1765.93 39.008C1765.41 39.008 1764.96 39.1413 1764.57 39.408C1764.2 39.664 1763.96 40.0427 1763.87 40.544H1762.49C1762.54 39.968 1762.74 39.4827 1763.07 39.088C1763.41 38.6933 1763.83 38.3947 1764.33 38.192C1764.83 37.9787 1765.37 37.872 1765.93 37.872C1767.04 37.872 1767.87 38.1707 1768.43 38.768C1768.99 39.3547 1769.28 40.1387 1769.28 41.12V46H1768.08L1768 44.576C1767.77 45.024 1767.44 45.408 1767 45.728C1766.58 46.0373 1766 46.192 1765.28 46.192ZM1765.48 45.056C1766 45.056 1766.43 44.9227 1766.8 44.656C1767.17 44.3893 1767.45 44.0427 1767.64 43.616C1767.84 43.1893 1767.93 42.7413 1767.93 42.272V42.256H1765.9C1765.11 42.256 1764.55 42.3947 1764.22 42.672C1763.9 42.9387 1763.74 43.2747 1763.74 43.68C1763.74 44.096 1763.89 44.432 1764.19 44.688C1764.5 44.9333 1764.93 45.056 1765.48 45.056ZM1771.92 49.52L1773.89 45.232H1773.43L1770.27 38.064H1771.73L1774.35 44.24L1777.14 38.064H1778.53L1773.33 49.52H1771.92ZM1782.52 46.192C1781.57 46.192 1780.78 45.952 1780.15 45.472C1779.52 44.992 1779.15 44.3413 1779.05 43.52H1780.42C1780.51 43.936 1780.73 44.2987 1781.08 44.608C1781.44 44.9067 1781.93 45.056 1782.54 45.056C1783.1 45.056 1783.52 44.9387 1783.78 44.704C1784.05 44.4587 1784.18 44.1707 1784.18 43.84C1784.18 43.36 1784.01 43.04 1783.66 42.88C1783.31 42.72 1782.83 42.576 1782.2 42.448C1781.77 42.3627 1781.35 42.24 1780.92 42.08C1780.49 41.92 1780.14 41.696 1779.85 41.408C1779.56 41.1093 1779.42 40.72 1779.42 40.24C1779.42 39.5467 1779.67 38.9813 1780.18 38.544C1780.71 38.096 1781.41 37.872 1782.3 37.872C1783.14 37.872 1783.83 38.0853 1784.36 38.512C1784.9 38.928 1785.22 39.5253 1785.3 40.304H1783.98C1783.92 39.8987 1783.75 39.584 1783.45 39.36C1783.16 39.1253 1782.77 39.008 1782.28 39.008C1781.8 39.008 1781.43 39.1093 1781.16 39.312C1780.9 39.5147 1780.78 39.7813 1780.78 40.112C1780.78 40.432 1780.94 40.6827 1781.27 40.864C1781.61 41.0453 1782.07 41.2 1782.65 41.328C1783.14 41.4347 1783.6 41.568 1784.04 41.728C1784.49 41.8773 1784.85 42.1067 1785.13 42.416C1785.42 42.7147 1785.56 43.152 1785.56 43.728C1785.57 44.4427 1785.3 45.0347 1784.74 45.504C1784.2 45.9627 1783.46 46.192 1782.52 46.192Z" fill="#6D6D6D"/>
<path d="M1582.98 30C1580.31 30.0048 1577.88 31.0578 1576.09 32.7696L1574.65 31.3295C1574.04 30.7198 1573 31.1516 1573 32.0138V37.4194C1573 37.9538 1573.43 38.3871 1573.97 38.3871H1579.37C1580.24 38.3871 1580.67 37.3447 1580.06 36.7351L1578.37 35.0516C1579.62 33.8863 1581.23 33.2408 1582.94 33.2261C1586.67 33.1939 1589.81 36.209 1589.77 40.0584C1589.74 43.7101 1586.78 46.7742 1583 46.7742C1581.34 46.7742 1579.77 46.1824 1578.54 45.0986C1578.35 44.9308 1578.06 44.941 1577.88 45.1209L1576.28 46.7201C1576.08 46.9166 1576.09 47.2369 1576.3 47.4231C1578.07 49.0247 1580.42 50 1583 50C1588.52 50 1593 45.5229 1593 40.0001C1593 34.4836 1588.5 29.9901 1582.98 30Z" fill="#262626"/>
<path d="M939.184 46V34.8H946V35.904H940.528V39.84H945.184V40.928H940.528V46H939.184ZM947.651 46V38.064H948.867L948.979 39.584C949.224 39.0613 949.598 38.6453 950.099 38.336C950.6 38.0267 951.219 37.872 951.955 37.872V39.28H951.587C951.118 39.28 950.686 39.3653 950.291 39.536C949.896 39.696 949.582 39.9733 949.347 40.368C949.112 40.7627 948.995 41.3067 948.995 42V46H947.651ZM956.735 46.192C955.977 46.192 955.305 46.0213 954.719 45.68C954.132 45.328 953.668 44.8427 953.327 44.224C952.996 43.6053 952.831 42.8747 952.831 42.032C952.831 41.2 952.996 40.4747 953.327 39.856C953.657 39.2267 954.116 38.7413 954.703 38.4C955.3 38.048 955.988 37.872 956.766 37.872C957.535 37.872 958.196 38.048 958.751 38.4C959.316 38.7413 959.748 39.1947 960.047 39.76C960.345 40.3253 960.495 40.9333 960.495 41.584C960.495 41.7013 960.489 41.8187 960.479 41.936C960.479 42.0533 960.479 42.1867 960.479 42.336H954.159C954.191 42.944 954.329 43.4507 954.575 43.856C954.831 44.2507 955.145 44.5493 955.519 44.752C955.903 44.9547 956.308 45.056 956.735 45.056C957.289 45.056 957.753 44.928 958.127 44.672C958.5 44.416 958.772 44.0693 958.943 43.632H960.271C960.057 44.368 959.647 44.9813 959.039 45.472C958.441 45.952 957.673 46.192 956.735 46.192ZM956.735 39.008C956.095 39.008 955.524 39.2053 955.023 39.6C954.532 39.984 954.249 40.5493 954.174 41.296H959.167C959.135 40.5813 958.889 40.0213 958.431 39.616C957.972 39.2107 957.407 39.008 956.735 39.008ZM965.844 46.192C965.087 46.192 964.415 46.0213 963.828 45.68C963.241 45.328 962.777 44.8427 962.436 44.224C962.105 43.6053 961.94 42.8747 961.94 42.032C961.94 41.2 962.105 40.4747 962.436 39.856C962.767 39.2267 963.225 38.7413 963.812 38.4C964.409 38.048 965.097 37.872 965.876 37.872C966.644 37.872 967.305 38.048 967.86 38.4C968.425 38.7413 968.857 39.1947 969.156 39.76C969.455 40.3253 969.604 40.9333 969.604 41.584C969.604 41.7013 969.599 41.8187 969.588 41.936C969.588 42.0533 969.588 42.1867 969.588 42.336H963.268C963.3 42.944 963.439 43.4507 963.684 43.856C963.94 44.2507 964.255 44.5493 964.628 44.752C965.012 44.9547 965.417 45.056 965.844 45.056C966.399 45.056 966.863 44.928 967.236 44.672C967.609 44.416 967.881 44.0693 968.052 43.632H969.38C969.167 44.368 968.756 44.9813 968.148 45.472C967.551 45.952 966.783 46.192 965.844 46.192ZM965.844 39.008C965.204 39.008 964.633 39.2053 964.132 39.6C963.641 39.984 963.359 40.5493 963.284 41.296H968.276C968.244 40.5813 967.999 40.0213 967.54 39.616C967.081 39.2107 966.516 39.008 965.844 39.008ZM978.66 46.192C977.71 46.192 976.921 45.952 976.292 45.472C975.662 44.992 975.294 44.3413 975.188 43.52H976.564C976.649 43.936 976.868 44.2987 977.22 44.608C977.582 44.9067 978.068 45.056 978.676 45.056C979.241 45.056 979.657 44.9387 979.924 44.704C980.19 44.4587 980.324 44.1707 980.324 43.84C980.324 43.36 980.148 43.04 979.796 42.88C979.454 42.72 978.969 42.576 978.34 42.448C977.913 42.3627 977.486 42.24 977.06 42.08C976.633 41.92 976.276 41.696 975.988 41.408C975.7 41.1093 975.556 40.72 975.556 40.24C975.556 39.5467 975.812 38.9813 976.324 38.544C976.846 38.096 977.55 37.872 978.436 37.872C979.278 37.872 979.966 38.0853 980.5 38.512C981.044 38.928 981.358 39.5253 981.444 40.304H980.116C980.062 39.8987 979.886 39.584 979.588 39.36C979.3 39.1253 978.91 39.008 978.42 39.008C977.94 39.008 977.566 39.1093 977.3 39.312C977.044 39.5147 976.916 39.7813 976.916 40.112C976.916 40.432 977.081 40.6827 977.412 40.864C977.753 41.0453 978.212 41.2 978.788 41.328C979.278 41.4347 979.742 41.568 980.18 41.728C980.628 41.8773 980.99 42.1067 981.268 42.416C981.556 42.7147 981.7 43.152 981.7 43.728C981.71 44.4427 981.438 45.0347 980.884 45.504C980.34 45.9627 979.598 46.192 978.66 46.192ZM983.62 46V34.48H984.964V39.424C985.23 38.9333 985.609 38.5547 986.1 38.288C986.59 38.0107 987.124 37.872 987.7 37.872C988.617 37.872 989.353 38.16 989.908 38.736C990.462 39.3013 990.74 40.176 990.74 41.36V46H989.412V41.504C989.412 39.8507 988.745 39.024 987.412 39.024C986.718 39.024 986.137 39.2747 985.668 39.776C985.198 40.2667 984.964 40.9707 984.964 41.888V46H983.62ZM993.592 36.304C993.325 36.304 993.101 36.2187 992.92 36.048C992.749 35.8667 992.664 35.6427 992.664 35.376C992.664 35.12 992.749 34.9067 992.92 34.736C993.101 34.5653 993.325 34.48 993.592 34.48C993.848 34.48 994.067 34.5653 994.248 34.736C994.429 34.9067 994.52 35.12 994.52 35.376C994.52 35.6427 994.429 35.8667 994.248 36.048C994.067 36.2187 993.848 36.304 993.592 36.304ZM992.92 46V38.064H994.264V46H992.92ZM996.604 49.52V38.064H997.82L997.948 39.376C998.204 38.992 998.567 38.6453 999.036 38.336C999.516 38.0267 1000.12 37.872 1000.86 37.872C1001.65 37.872 1002.34 38.0533 1002.92 38.416C1003.51 38.7787 1003.96 39.2747 1004.28 39.904C1004.61 40.5333 1004.78 41.248 1004.78 42.048C1004.78 42.848 1004.61 43.5627 1004.28 44.192C1003.96 44.8107 1003.51 45.3013 1002.91 45.664C1002.32 46.016 1001.63 46.192 1000.84 46.192C1000.19 46.192 999.612 46.0587 999.1 45.792C998.599 45.5253 998.215 45.152 997.948 44.672V49.52H996.604ZM1000.7 45.024C1001.23 45.024 1001.7 44.9013 1002.11 44.656C1002.51 44.4 1002.83 44.048 1003.07 43.6C1003.3 43.152 1003.42 42.6293 1003.42 42.032C1003.42 41.4347 1003.3 40.912 1003.07 40.464C1002.83 40.016 1002.51 39.6693 1002.11 39.424C1001.7 39.168 1001.23 39.04 1000.7 39.04C1000.17 39.04 999.697 39.168 999.292 39.424C998.887 39.6693 998.567 40.016 998.332 40.464C998.097 40.912 997.98 41.4347 997.98 42.032C997.98 42.6293 998.097 43.152 998.332 43.6C998.567 44.048 998.887 44.4 999.292 44.656C999.697 44.9013 1000.17 45.024 1000.7 45.024ZM1006.65 49.52V38.064H1007.87L1007.99 39.376C1008.25 38.992 1008.61 38.6453 1009.08 38.336C1009.56 38.0267 1010.17 37.872 1010.91 37.872C1011.7 37.872 1012.38 38.0533 1012.97 38.416C1013.56 38.7787 1014.01 39.2747 1014.33 39.904C1014.66 40.5333 1014.83 41.248 1014.83 42.048C1014.83 42.848 1014.66 43.5627 1014.33 44.192C1014.01 44.8107 1013.55 45.3013 1012.95 45.664C1012.37 46.016 1011.68 46.192 1010.89 46.192C1010.24 46.192 1009.66 46.0587 1009.15 45.792C1008.65 45.5253 1008.26 45.152 1007.99 44.672V49.52H1006.65ZM1010.75 45.024C1011.28 45.024 1011.75 44.9013 1012.15 44.656C1012.56 44.4 1012.88 44.048 1013.11 43.6C1013.35 43.152 1013.47 42.6293 1013.47 42.032C1013.47 41.4347 1013.35 40.912 1013.11 40.464C1012.88 40.016 1012.56 39.6693 1012.15 39.424C1011.75 39.168 1011.28 39.04 1010.75 39.04C1010.21 39.04 1009.74 39.168 1009.34 39.424C1008.93 39.6693 1008.61 40.016 1008.38 40.464C1008.14 40.912 1008.03 41.4347 1008.03 42.032C1008.03 42.6293 1008.14 43.152 1008.38 43.6C1008.61 44.048 1008.93 44.4 1009.34 44.656C1009.74 44.9013 1010.21 45.024 1010.75 45.024ZM1017.51 36.304C1017.25 36.304 1017.02 36.2187 1016.84 36.048C1016.67 35.8667 1016.59 35.6427 1016.59 35.376C1016.59 35.12 1016.67 34.9067 1016.84 34.736C1017.02 34.5653 1017.25 34.48 1017.51 34.48C1017.77 34.48 1017.99 34.5653 1018.17 34.736C1018.35 34.9067 1018.44 35.12 1018.44 35.376C1018.44 35.6427 1018.35 35.8667 1018.17 36.048C1017.99 36.2187 1017.77 36.304 1017.51 36.304ZM1016.84 46V38.064H1018.19V46H1016.84ZM1020.53 46V38.064H1021.74L1021.82 39.488C1022.08 38.9867 1022.45 38.592 1022.93 38.304C1023.41 38.016 1023.95 37.872 1024.56 37.872C1025.5 37.872 1026.24 38.16 1026.8 38.736C1027.36 39.3013 1027.65 40.176 1027.65 41.36V46H1026.3V41.504C1026.3 39.8507 1025.62 39.024 1024.25 39.024C1023.57 39.024 1023 39.2747 1022.54 39.776C1022.09 40.2667 1021.87 40.9707 1021.87 41.888V46H1020.53ZM1032.82 43.504C1032.37 43.504 1031.96 43.4453 1031.59 43.328L1030.79 44.08C1030.9 44.1653 1031.05 44.24 1031.22 44.304C1031.4 44.3573 1031.66 44.4107 1031.99 44.464C1032.32 44.5067 1032.78 44.5547 1033.38 44.608C1034.44 44.6827 1035.21 44.928 1035.67 45.344C1036.12 45.76 1036.35 46.304 1036.35 46.976C1036.35 47.4347 1036.23 47.872 1035.97 48.288C1035.72 48.704 1035.34 49.0453 1034.82 49.312C1034.31 49.5787 1033.64 49.712 1032.83 49.712C1032.12 49.712 1031.48 49.616 1030.93 49.424C1030.38 49.2427 1029.94 48.96 1029.63 48.576C1029.32 48.2027 1029.17 47.728 1029.17 47.152C1029.17 46.8533 1029.25 46.528 1029.41 46.176C1029.57 45.8347 1029.87 45.5093 1030.31 45.2C1030.07 45.104 1029.87 45.0027 1029.7 44.896C1029.54 44.7787 1029.39 44.6507 1029.25 44.512V44.144L1030.61 42.8C1029.98 42.2667 1029.67 41.5627 1029.67 40.688C1029.67 40.1653 1029.79 39.6907 1030.03 39.264C1030.28 38.8373 1030.64 38.5013 1031.11 38.256C1031.58 38 1032.15 37.872 1032.82 37.872C1033.28 37.872 1033.69 37.936 1034.07 38.064H1036.99V39.072L1035.51 39.136C1035.82 39.584 1035.97 40.1013 1035.97 40.688C1035.97 41.2107 1035.84 41.6853 1035.59 42.112C1035.34 42.5387 1034.98 42.88 1034.51 43.136C1034.06 43.3813 1033.49 43.504 1032.82 43.504ZM1032.82 42.4C1033.38 42.4 1033.83 42.256 1034.16 41.968C1034.5 41.6693 1034.67 41.2427 1034.67 40.688C1034.67 40.144 1034.5 39.728 1034.16 39.44C1033.83 39.1413 1033.38 38.992 1032.82 38.992C1032.24 38.992 1031.78 39.1413 1031.44 39.44C1031.11 39.728 1030.95 40.144 1030.95 40.688C1030.95 41.2427 1031.11 41.6693 1031.44 41.968C1031.78 42.256 1032.24 42.4 1032.82 42.4ZM1030.48 47.024C1030.48 47.5573 1030.71 47.952 1031.15 48.208C1031.6 48.4747 1032.16 48.608 1032.83 48.608C1033.5 48.608 1034.02 48.464 1034.42 48.176C1034.82 47.888 1035.03 47.504 1035.03 47.024C1035.03 46.6827 1034.89 46.384 1034.61 46.128C1034.33 45.8827 1033.82 45.7387 1033.07 45.696C1032.49 45.6533 1031.98 45.6 1031.55 45.536C1031.12 45.7707 1030.83 46.0213 1030.69 46.288C1030.55 46.5653 1030.48 46.8107 1030.48 47.024Z" fill="#6D6D6D"/>
<path fill-rule="evenodd" clip-rule="evenodd" d="M921.75 43.75H922.375C922.719 43.75 923 44.0312 923 44.375V45.625C923 45.9688 922.719 46.25 922.375 46.25H920.5C920.5 48.3203 918.82 50 916.75 50C914.68 50 913 48.3203 913 46.25H908C908 48.3203 906.32 50 904.25 50C902.18 50 900.5 48.3203 900.5 46.25H899.875C898.84 46.25 898 45.4102 898 44.375V31.875C898 30.8398 898.84 30 899.875 30H912.375C913.41 30 914.25 30.8398 914.25 31.875V33.75H915.973C916.469 33.75 916.945 33.9492 917.297 34.3008L921.199 38.2031C921.551 38.5547 921.75 39.0312 921.75 39.5273V43.75ZM902.375 46.25C902.375 47.2852 903.215 48.125 904.25 48.125C905.285 48.125 906.125 47.2852 906.125 46.25C906.125 45.2148 905.285 44.375 904.25 44.375C903.215 44.375 902.375 45.2148 902.375 46.25ZM916.75 48.125C915.715 48.125 914.875 47.2852 914.875 46.25C914.875 45.2148 915.715 44.375 916.75 44.375C917.785 44.375 918.625 45.2148 918.625 46.25C918.625 47.2852 917.785 48.125 916.75 48.125ZM914.25 40H919.875V39.5273L915.973 35.625H914.25V40Z" fill="#262626"/>
<path d="M222.066 46V35.904H218.722V34.8H226.754V35.904H223.41V46H222.066ZM229.071 46L226.751 38.064H228.095L229.775 44.288L231.631 38.064H233.151L235.023 44.288L236.687 38.064H238.047L235.727 46H234.351L232.399 39.456L230.447 46H229.071ZM242.853 46.192C242.106 46.192 241.434 46.0213 240.837 45.68C240.239 45.3387 239.765 44.8587 239.413 44.24C239.071 43.6107 238.901 42.8747 238.901 42.032C238.901 41.1893 239.077 40.4587 239.429 39.84C239.781 39.2107 240.255 38.7253 240.853 38.384C241.461 38.0427 242.138 37.872 242.885 37.872C243.631 37.872 244.303 38.0427 244.901 38.384C245.498 38.7253 245.967 39.2107 246.309 39.84C246.661 40.4587 246.837 41.1893 246.837 42.032C246.837 42.8747 246.661 43.6107 246.309 44.24C245.957 44.8587 245.477 45.3387 244.869 45.68C244.271 46.0213 243.599 46.192 242.853 46.192ZM242.853 45.04C243.311 45.04 243.738 44.928 244.133 44.704C244.527 44.48 244.847 44.144 245.093 43.696C245.338 43.248 245.461 42.6933 245.461 42.032C245.461 41.3707 245.338 40.816 245.093 40.368C244.858 39.92 244.543 39.584 244.149 39.36C243.754 39.136 243.333 39.024 242.885 39.024C242.426 39.024 241.999 39.136 241.605 39.36C241.21 39.584 240.89 39.92 240.645 40.368C240.399 40.816 240.277 41.3707 240.277 42.032C240.277 42.6933 240.399 43.248 240.645 43.696C240.89 44.144 241.205 44.48 241.589 44.704C241.983 44.928 242.405 45.04 242.853 45.04ZM253.804 49.52L255.772 45.232H255.308L252.156 38.064H253.612L256.236 44.24L259.02 38.064H260.412L255.212 49.52H253.804ZM264.649 46.192C263.891 46.192 263.219 46.0213 262.633 45.68C262.046 45.328 261.582 44.8427 261.241 44.224C260.91 43.6053 260.745 42.8747 260.745 42.032C260.745 41.2 260.91 40.4747 261.241 39.856C261.571 39.2267 262.03 38.7413 262.617 38.4C263.214 38.048 263.902 37.872 264.681 37.872C265.449 37.872 266.11 38.048 266.665 38.4C267.23 38.7413 267.662 39.1947 267.961 39.76C268.259 40.3253 268.409 40.9333 268.409 41.584C268.409 41.7013 268.403 41.8187 268.393 41.936C268.393 42.0533 268.393 42.1867 268.393 42.336H262.073C262.105 42.944 262.243 43.4507 262.489 43.856C262.745 44.2507 263.059 44.5493 263.433 44.752C263.817 44.9547 264.222 45.056 264.649 45.056C265.203 45.056 265.667 44.928 266.041 44.672C266.414 44.416 266.686 44.0693 266.857 43.632H268.185C267.971 44.368 267.561 44.9813 266.953 45.472C266.355 45.952 265.587 46.192 264.649 46.192ZM264.649 39.008C264.009 39.008 263.438 39.2053 262.937 39.6C262.446 39.984 262.163 40.5493 262.089 41.296H267.081C267.049 40.5813 266.803 40.0213 266.345 39.616C265.886 39.2107 265.321 39.008 264.649 39.008ZM272.83 46.192C272.169 46.192 271.619 46.08 271.182 45.856C270.745 45.632 270.419 45.3333 270.206 44.96C269.993 44.5867 269.886 44.1813 269.886 43.744C269.886 42.9333 270.195 42.3093 270.814 41.872C271.433 41.4347 272.275 41.216 273.342 41.216H275.486V41.12C275.486 40.4267 275.305 39.904 274.942 39.552C274.579 39.1893 274.094 39.008 273.486 39.008C272.963 39.008 272.51 39.1413 272.126 39.408C271.753 39.664 271.518 40.0427 271.422 40.544H270.046C270.099 39.968 270.291 39.4827 270.622 39.088C270.963 38.6933 271.385 38.3947 271.886 38.192C272.387 37.9787 272.921 37.872 273.486 37.872C274.595 37.872 275.427 38.1707 275.982 38.768C276.547 39.3547 276.83 40.1387 276.83 41.12V46H275.63L275.55 44.576C275.326 45.024 274.995 45.408 274.558 45.728C274.131 46.0373 273.555 46.192 272.83 46.192ZM273.038 45.056C273.55 45.056 273.987 44.9227 274.35 44.656C274.723 44.3893 275.006 44.0427 275.198 43.616C275.39 43.1893 275.486 42.7413 275.486 42.272V42.256H273.454C272.665 42.256 272.105 42.3947 271.774 42.672C271.454 42.9387 271.294 43.2747 271.294 43.68C271.294 44.096 271.443 44.432 271.742 44.688C272.051 44.9333 272.483 45.056 273.038 45.056ZM278.846 46V38.064H280.062L280.174 39.584C280.42 39.0613 280.793 38.6453 281.294 38.336C281.796 38.0267 282.414 37.872 283.15 37.872V39.28H282.782C282.313 39.28 281.881 39.3653 281.486 39.536C281.092 39.696 280.777 39.9733 280.542 40.368C280.308 40.7627 280.19 41.3067 280.19 42V46H278.846ZM287.699 46.192C286.749 46.192 285.96 45.952 285.331 45.472C284.701 44.992 284.333 44.3413 284.227 43.52H285.603C285.688 43.936 285.907 44.2987 286.259 44.608C286.621 44.9067 287.107 45.056 287.715 45.056C288.28 45.056 288.696 44.9387 288.963 44.704C289.229 44.4587 289.363 44.1707 289.363 43.84C289.363 43.36 289.187 43.04 288.835 42.88C288.493 42.72 288.008 42.576 287.379 42.448C286.952 42.3627 286.525 42.24 286.099 42.08C285.672 41.92 285.315 41.696 285.027 41.408C284.739 41.1093 284.595 40.72 284.595 40.24C284.595 39.5467 284.851 38.9813 285.363 38.544C285.885 38.096 286.589 37.872 287.475 37.872C288.317 37.872 289.005 38.0853 289.539 38.512C290.083 38.928 290.397 39.5253 290.483 40.304H289.155C289.101 39.8987 288.925 39.584 288.627 39.36C288.339 39.1253 287.949 39.008 287.459 39.008C286.979 39.008 286.605 39.1093 286.339 39.312C286.083 39.5147 285.955 39.7813 285.955 40.112C285.955 40.432 286.12 40.6827 286.451 40.864C286.792 41.0453 287.251 41.2 287.827 41.328C288.317 41.4347 288.781 41.568 289.219 41.728C289.667 41.8773 290.029 42.1067 290.307 42.416C290.595 42.7147 290.739 43.152 290.739 43.728C290.749 44.4427 290.477 45.0347 289.923 45.504C289.379 45.9627 288.637 46.192 287.699 46.192ZM298.493 46L296.173 38.064H297.517L299.197 44.288L301.053 38.064H302.573L304.445 44.288L306.109 38.064H307.469L305.149 46H303.773L301.821 39.456L299.869 46H298.493ZM311.314 46.192C310.653 46.192 310.104 46.08 309.666 45.856C309.229 45.632 308.904 45.3333 308.69 44.96C308.477 44.5867 308.37 44.1813 308.37 43.744C308.37 42.9333 308.68 42.3093 309.298 41.872C309.917 41.4347 310.76 41.216 311.826 41.216H313.97V41.12C313.97 40.4267 313.789 39.904 313.426 39.552C313.064 39.1893 312.578 39.008 311.97 39.008C311.448 39.008 310.994 39.1413 310.61 39.408C310.237 39.664 310.002 40.0427 309.906 40.544H308.53C308.584 39.968 308.776 39.4827 309.106 39.088C309.448 38.6933 309.869 38.3947 310.37 38.192C310.872 37.9787 311.405 37.872 311.97 37.872C313.08 37.872 313.912 38.1707 314.466 38.768C315.032 39.3547 315.314 40.1387 315.314 41.12V46H314.114L314.034 44.576C313.81 45.024 313.48 45.408 313.042 45.728C312.616 46.0373 312.04 46.192 311.314 46.192ZM311.522 45.056C312.034 45.056 312.472 44.9227 312.834 44.656C313.208 44.3893 313.49 44.0427 313.682 43.616C313.874 43.1893 313.97 42.7413 313.97 42.272V42.256H311.938C311.149 42.256 310.589 42.3947 310.258 42.672C309.938 42.9387 309.778 43.2747 309.778 43.68C309.778 44.096 309.928 44.432 310.226 44.688C310.536 44.9333 310.968 45.056 311.522 45.056ZM317.331 46V38.064H318.547L318.659 39.584C318.904 39.0613 319.277 38.6453 319.779 38.336C320.28 38.0267 320.899 37.872 321.635 37.872V39.28H321.267C320.797 39.28 320.365 39.3653 319.971 39.536C319.576 39.696 319.261 39.9733 319.027 40.368C318.792 40.7627 318.675 41.3067 318.675 42V46H317.331ZM323.143 46V38.064H324.359L324.471 39.584C324.716 39.0613 325.09 38.6453 325.591 38.336C326.092 38.0267 326.711 37.872 327.447 37.872V39.28H327.079C326.61 39.28 326.178 39.3653 325.783 39.536C325.388 39.696 325.074 39.9733 324.839 40.368C324.604 40.7627 324.487 41.3067 324.487 42V46H323.143ZM331.596 46.192C330.934 46.192 330.385 46.08 329.948 45.856C329.51 45.632 329.185 45.3333 328.972 44.96C328.758 44.5867 328.652 44.1813 328.652 43.744C328.652 42.9333 328.961 42.3093 329.58 41.872C330.198 41.4347 331.041 41.216 332.108 41.216H334.252V41.12C334.252 40.4267 334.07 39.904 333.708 39.552C333.345 39.1893 332.86 39.008 332.252 39.008C331.729 39.008 331.276 39.1413 330.892 39.408C330.518 39.664 330.284 40.0427 330.188 40.544H328.812C328.865 39.968 329.057 39.4827 329.388 39.088C329.729 38.6933 330.15 38.3947 330.652 38.192C331.153 37.9787 331.686 37.872 332.252 37.872C333.361 37.872 334.193 38.1707 334.748 38.768C335.313 39.3547 335.596 40.1387 335.596 41.12V46H334.396L334.316 44.576C334.092 45.024 333.761 45.408 333.324 45.728C332.897 46.0373 332.321 46.192 331.596 46.192ZM331.804 45.056C332.316 45.056 332.753 44.9227 333.116 44.656C333.489 44.3893 333.772 44.0427 333.964 43.616C334.156 43.1893 334.252 42.7413 334.252 42.272V42.256H332.22C331.43 42.256 330.87 42.3947 330.54 42.672C330.22 42.9387 330.06 43.2747 330.06 43.68C330.06 44.096 330.209 44.432 330.508 44.688C330.817 44.9333 331.249 45.056 331.804 45.056ZM337.612 46V38.064H338.828L338.908 39.488C339.164 38.9867 339.532 38.592 340.012 38.304C340.492 38.016 341.036 37.872 341.644 37.872C342.582 37.872 343.329 38.16 343.884 38.736C344.449 39.3013 344.732 40.176 344.732 41.36V46H343.388V41.504C343.388 39.8507 342.705 39.024 341.34 39.024C340.657 39.024 340.086 39.2747 339.628 39.776C339.18 40.2667 338.956 40.9707 338.956 41.888V46H337.612ZM349.904 46C349.179 46 348.608 45.824 348.192 45.472C347.776 45.12 347.568 44.4853 347.568 43.568V39.2H346.192V38.064H347.568L347.744 36.16H348.912V38.064H351.248V39.2H348.912V43.568C348.912 44.0693 349.013 44.4107 349.216 44.592C349.419 44.7627 349.776 44.848 350.288 44.848H351.12V46H349.904ZM353.82 49.52L355.788 45.232H355.324L352.172 38.064H353.628L356.252 44.24L359.036 38.064H360.428L355.228 49.52H353.82Z" fill="#6D6D6D"/>
<path d="M187.44 50V47.396C188.635 46.4066 189.797 45.4266 190.926 44.456C192.056 43.4853 193.064 42.524 193.95 41.572C194.837 40.62 195.546 39.6913 196.078 38.786C196.61 37.8806 196.876 36.9986 196.876 36.14C196.876 35.3373 196.657 34.628 196.218 34.012C195.78 33.396 195.056 33.088 194.048 33.088C193.022 33.088 192.247 33.424 191.724 34.096C191.202 34.768 190.94 35.58 190.94 36.532H187.468C187.506 35.0946 187.823 33.8953 188.42 32.934C189.018 31.9726 189.811 31.254 190.8 30.778C191.79 30.302 192.9 30.064 194.132 30.064C196.13 30.064 197.684 30.61 198.794 31.702C199.905 32.794 200.46 34.208 200.46 35.944C200.46 37.0266 200.213 38.0813 199.718 39.108C199.224 40.1346 198.575 41.124 197.772 42.076C196.97 43.028 196.102 43.9193 195.168 44.75C194.235 45.5806 193.33 46.3506 192.452 47.06H200.936V50H187.44Z" fill="#262626"/>
</svg>
